<?xml version="1.0" encoding="utf-8" standalone="no"?>
<!DOCTYPE svg PUBLIC "-//W3C//DTD SVG 1.1//EN"
  "http://www.w3.org/Graphics/SVG/1.1/DTD/svg11.dtd">
<svg xmlns:xlink="http://www.w3.org/1999/xlink" width="460.8pt" height="345.6pt" viewBox="0 0 460.8 345.6" xmlns="http://www.w3.org/2000/svg" version="1.1">
 <metadata>
  <rdf:RDF xmlns:dc="http://purl.org/dc/elements/1.1/" xmlns:cc="http://creativecommons.org/ns#" xmlns:rdf="http://www.w3.org/1999/02/22-rdf-syntax-ns#">
   <cc:Work>
    <dc:type rdf:resource="http://purl.org/dc/dcmitype/StillImage"/>
    <dc:date>2023-03-14T16:46:08.807008</dc:date>
    <dc:format>image/svg+xml</dc:format>
    <dc:creator>
     <cc:Agent>
      <dc:title>Matplotlib v3.5.3, https://matplotlib.org/</dc:title>
     </cc:Agent>
    </dc:creator>
   </cc:Work>
  </rdf:RDF>
 </metadata>
 <defs>
  <style type="text/css">*{stroke-linejoin: round; stroke-linecap: butt}</style>
 </defs>
 <g id="figure_1">
  <g id="patch_1">
   <path d="M 0 345.6 
L 460.8 345.6 
L 460.8 0 
L 0 0 
z
" style="fill: #ffffff"/>
  </g>
  <g id="axes_1">
   <g id="patch_2">
    <path d="M 57.6 307.584 
L 414.72 307.584 
L 414.72 41.472 
L 57.6 41.472 
z
" style="fill: #ffffff"/>
   </g>
   <g id="matplotlib.axis_1">
    <g id="xtick_1">
     <g id="line2d_1">
      <defs>
       <path id="maefda880dd" d="M 0 0 
L 0 3.5 
" style="stroke: #000000; stroke-width: 0.8"/>
      </defs>
      <g>
       <use xlink:href="#maefda880dd" x="57.6" y="307.584" style="stroke: #000000; stroke-width: 0.8"/>
      </g>
     </g>
     <g id="text_1">
      <!-- 0 -->
      <g transform="translate(54.41875 322.182437)scale(0.1 -0.1)">
       <defs>
        <path id="DejaVuSans-30" d="M 2034 4250 
Q 1547 4250 1301 3770 
Q 1056 3291 1056 2328 
Q 1056 1369 1301 889 
Q 1547 409 2034 409 
Q 2525 409 2770 889 
Q 3016 1369 3016 2328 
Q 3016 3291 2770 3770 
Q 2525 4250 2034 4250 
z
M 2034 4750 
Q 2819 4750 3233 4129 
Q 3647 3509 3647 2328 
Q 3647 1150 3233 529 
Q 2819 -91 2034 -91 
Q 1250 -91 836 529 
Q 422 1150 422 2328 
Q 422 3509 836 4129 
Q 1250 4750 2034 4750 
z
" transform="scale(0.015625)"/>
       </defs>
       <use xlink:href="#DejaVuSans-30"/>
      </g>
     </g>
    </g>
    <g id="xtick_2">
     <g id="line2d_2">
      <g>
       <use xlink:href="#maefda880dd" x="127.35" y="307.584" style="stroke: #000000; stroke-width: 0.8"/>
      </g>
     </g>
     <g id="text_2">
      <!-- 50 -->
      <g transform="translate(120.9875 322.182437)scale(0.1 -0.1)">
       <defs>
        <path id="DejaVuSans-35" d="M 691 4666 
L 3169 4666 
L 3169 4134 
L 1269 4134 
L 1269 2991 
Q 1406 3038 1543 3061 
Q 1681 3084 1819 3084 
Q 2600 3084 3056 2656 
Q 3513 2228 3513 1497 
Q 3513 744 3044 326 
Q 2575 -91 1722 -91 
Q 1428 -91 1123 -41 
Q 819 9 494 109 
L 494 744 
Q 775 591 1075 516 
Q 1375 441 1709 441 
Q 2250 441 2565 725 
Q 2881 1009 2881 1497 
Q 2881 1984 2565 2268 
Q 2250 2553 1709 2553 
Q 1456 2553 1204 2497 
Q 953 2441 691 2322 
L 691 4666 
z
" transform="scale(0.015625)"/>
       </defs>
       <use xlink:href="#DejaVuSans-35"/>
       <use xlink:href="#DejaVuSans-30" x="63.623047"/>
      </g>
     </g>
    </g>
    <g id="xtick_3">
     <g id="line2d_3">
      <g>
       <use xlink:href="#maefda880dd" x="197.1" y="307.584" style="stroke: #000000; stroke-width: 0.8"/>
      </g>
     </g>
     <g id="text_3">
      <!-- 100 -->
      <g transform="translate(187.55625 322.182437)scale(0.1 -0.1)">
       <defs>
        <path id="DejaVuSans-31" d="M 794 531 
L 1825 531 
L 1825 4091 
L 703 3866 
L 703 4441 
L 1819 4666 
L 2450 4666 
L 2450 531 
L 3481 531 
L 3481 0 
L 794 0 
L 794 531 
z
" transform="scale(0.015625)"/>
       </defs>
       <use xlink:href="#DejaVuSans-31"/>
       <use xlink:href="#DejaVuSans-30" x="63.623047"/>
       <use xlink:href="#DejaVuSans-30" x="127.246094"/>
      </g>
     </g>
    </g>
    <g id="xtick_4">
     <g id="line2d_4">
      <g>
       <use xlink:href="#maefda880dd" x="266.85" y="307.584" style="stroke: #000000; stroke-width: 0.8"/>
      </g>
     </g>
     <g id="text_4">
      <!-- 150 -->
      <g transform="translate(257.30625 322.182437)scale(0.1 -0.1)">
       <use xlink:href="#DejaVuSans-31"/>
       <use xlink:href="#DejaVuSans-35" x="63.623047"/>
       <use xlink:href="#DejaVuSans-30" x="127.246094"/>
      </g>
     </g>
    </g>
    <g id="xtick_5">
     <g id="line2d_5">
      <g>
       <use xlink:href="#maefda880dd" x="336.6" y="307.584" style="stroke: #000000; stroke-width: 0.8"/>
      </g>
     </g>
     <g id="text_5">
      <!-- 200 -->
      <g transform="translate(327.05625 322.182437)scale(0.1 -0.1)">
       <defs>
        <path id="DejaVuSans-32" d="M 1228 531 
L 3431 531 
L 3431 0 
L 469 0 
L 469 531 
Q 828 903 1448 1529 
Q 2069 2156 2228 2338 
Q 2531 2678 2651 2914 
Q 2772 3150 2772 3378 
Q 2772 3750 2511 3984 
Q 2250 4219 1831 4219 
Q 1534 4219 1204 4116 
Q 875 4013 500 3803 
L 500 4441 
Q 881 4594 1212 4672 
Q 1544 4750 1819 4750 
Q 2544 4750 2975 4387 
Q 3406 4025 3406 3419 
Q 3406 3131 3298 2873 
Q 3191 2616 2906 2266 
Q 2828 2175 2409 1742 
Q 1991 1309 1228 531 
z
" transform="scale(0.015625)"/>
       </defs>
       <use xlink:href="#DejaVuSans-32"/>
       <use xlink:href="#DejaVuSans-30" x="63.623047"/>
       <use xlink:href="#DejaVuSans-30" x="127.246094"/>
      </g>
     </g>
    </g>
    <g id="xtick_6">
     <g id="line2d_6">
      <g>
       <use xlink:href="#maefda880dd" x="406.35" y="307.584" style="stroke: #000000; stroke-width: 0.8"/>
      </g>
     </g>
     <g id="text_6">
      <!-- 250 -->
      <g transform="translate(396.80625 322.182437)scale(0.1 -0.1)">
       <use xlink:href="#DejaVuSans-32"/>
       <use xlink:href="#DejaVuSans-35" x="63.623047"/>
       <use xlink:href="#DejaVuSans-30" x="127.246094"/>
      </g>
     </g>
    </g>
   </g>
   <g id="matplotlib.axis_2">
    <g id="ytick_1">
     <g id="line2d_7">
      <defs>
       <path id="m61200ff75f" d="M 0 0 
L -3.5 0 
" style="stroke: #000000; stroke-width: 0.8"/>
      </defs>
      <g>
       <use xlink:href="#m61200ff75f" x="57.6" y="307.584" style="stroke: #000000; stroke-width: 0.8"/>
      </g>
     </g>
     <g id="text_7">
      <!-- 0 -->
      <g transform="translate(44.2375 311.383219)scale(0.1 -0.1)">
       <use xlink:href="#DejaVuSans-30"/>
      </g>
     </g>
    </g>
    <g id="ytick_2">
     <g id="line2d_8">
      <g>
       <use xlink:href="#m61200ff75f" x="57.6" y="255.811237" style="stroke: #000000; stroke-width: 0.8"/>
      </g>
     </g>
     <g id="text_8">
      <!-- 50 -->
      <g transform="translate(37.875 259.610456)scale(0.1 -0.1)">
       <use xlink:href="#DejaVuSans-35"/>
       <use xlink:href="#DejaVuSans-30" x="63.623047"/>
      </g>
     </g>
    </g>
    <g id="ytick_3">
     <g id="line2d_9">
      <g>
       <use xlink:href="#m61200ff75f" x="57.6" y="204.038475" style="stroke: #000000; stroke-width: 0.8"/>
      </g>
     </g>
     <g id="text_9">
      <!-- 100 -->
      <g transform="translate(31.5125 207.837693)scale(0.1 -0.1)">
       <use xlink:href="#DejaVuSans-31"/>
       <use xlink:href="#DejaVuSans-30" x="63.623047"/>
       <use xlink:href="#DejaVuSans-30" x="127.246094"/>
      </g>
     </g>
    </g>
    <g id="ytick_4">
     <g id="line2d_10">
      <g>
       <use xlink:href="#m61200ff75f" x="57.6" y="152.265712" style="stroke: #000000; stroke-width: 0.8"/>
      </g>
     </g>
     <g id="text_10">
      <!-- 150 -->
      <g transform="translate(31.5125 156.064931)scale(0.1 -0.1)">
       <use xlink:href="#DejaVuSans-31"/>
       <use xlink:href="#DejaVuSans-35" x="63.623047"/>
       <use xlink:href="#DejaVuSans-30" x="127.246094"/>
      </g>
     </g>
    </g>
    <g id="ytick_5">
     <g id="line2d_11">
      <g>
       <use xlink:href="#m61200ff75f" x="57.6" y="100.492949" style="stroke: #000000; stroke-width: 0.8"/>
      </g>
     </g>
     <g id="text_11">
      <!-- 200 -->
      <g transform="translate(31.5125 104.292168)scale(0.1 -0.1)">
       <use xlink:href="#DejaVuSans-32"/>
       <use xlink:href="#DejaVuSans-30" x="63.623047"/>
       <use xlink:href="#DejaVuSans-30" x="127.246094"/>
      </g>
     </g>
    </g>
    <g id="ytick_6">
     <g id="line2d_12">
      <g>
       <use xlink:href="#m61200ff75f" x="57.6" y="48.720187" style="stroke: #000000; stroke-width: 0.8"/>
      </g>
     </g>
     <g id="text_12">
      <!-- 250 -->
      <g transform="translate(31.5125 52.519406)scale(0.1 -0.1)">
       <use xlink:href="#DejaVuSans-32"/>
       <use xlink:href="#DejaVuSans-35" x="63.623047"/>
       <use xlink:href="#DejaVuSans-30" x="127.246094"/>
      </g>
     </g>
    </g>
   </g>
   <g id="line2d_13">
    <path d="M 298.475778 176.081183 
L 298.935 176.259244 
L 299.87172 177.116638 
L 300.33 177.379269 
L 301.161642 178.152093 
L 301.725 178.544752 
L 302.378979 179.187549 
L 303.12 179.787298 
L 303.531347 180.223004 
L 304.515 181.134058 
L 304.622629 181.258459 
L 305.613989 182.293914 
L 305.91 182.58379 
L 306.541295 183.32937 
L 307.305 184.204887 
L 307.423704 184.364825 
L 308.210233 185.40028 
L 308.7 186.053939 
L 308.94882 186.435735 
L 309.608376 187.471191 
L 310.095 188.278979 
L 310.216599 188.506646 
L 310.738294 189.542101 
L 311.208152 190.577556 
L 311.49 191.280962 
L 311.610251 191.613012 
L 311.932508 192.648467 
L 312.190834 193.683922 
L 312.380842 194.719377 
L 312.498443 195.754833 
L 312.539752 196.790288 
L 312.500927 197.825743 
L 312.378124 198.861198 
L 312.16736 199.896654 
L 311.864489 200.932109 
L 311.49 201.90275 
L 311.463135 201.967564 
L 310.923806 203.003019 
L 310.269956 204.038475 
L 310.095 204.27322 
L 309.440898 205.07393 
L 308.7 205.855389 
L 308.431301 206.109385 
L 307.305 207.042357 
L 307.164017 207.14484 
L 305.91 207.956099 
L 305.504846 208.180296 
L 304.515 208.674757 
L 303.206966 209.215751 
L 303.12 209.248652 
L 301.725 209.669361 
L 300.33 209.981909 
L 298.935 210.187958 
L 298.058856 210.251206 
L 297.54 210.286109 
L 296.145 210.282716 
L 295.703802 210.251206 
L 294.75 210.177375 
L 293.355 209.965483 
L 291.96 209.648926 
L 290.565 209.226742 
L 290.535551 209.215751 
L 289.17 208.652326 
L 288.214517 208.180296 
L 287.775 207.936875 
L 286.536654 207.14484 
L 286.38 207.030779 
L 285.253234 206.109385 
L 284.985 205.855404 
L 284.233356 205.07393 
L 283.59 204.284427 
L 283.403968 204.038475 
L 282.749947 203.003019 
L 282.221865 201.967564 
L 282.195 201.900055 
L 281.829238 200.932109 
L 281.541821 199.896654 
L 281.35185 198.861198 
L 281.253653 197.825743 
L 281.242129 196.790288 
L 281.312675 195.754833 
L 281.460969 194.719377 
L 281.682878 193.683922 
L 281.974255 192.648467 
L 282.195 192.001842 
L 282.337935 191.613012 
L 282.777172 190.577556 
L 283.275119 189.542101 
L 283.59 188.942557 
L 283.841609 188.506646 
L 284.478562 187.471191 
L 284.985 186.691166 
L 285.170839 186.435735 
L 285.939808 185.40028 
L 286.38 184.814792 
L 286.767461 184.364825 
L 287.650301 183.32937 
L 287.775 183.176669 
L 288.622023 182.293914 
L 289.17 181.690197 
L 289.644664 181.258459 
L 290.565 180.342495 
L 290.716568 180.223004 
L 291.862107 179.187549 
L 291.96 179.080111 
L 293.096044 178.152093 
L 293.355 177.87185 
L 294.39654 177.116638 
L 294.75 176.710069 
L 295.779109 176.081183 
L 296.145 175.447837 
L 298.475778 176.081183 
" clip-path="url(#p502fc9312a)" style="fill: none; stroke: #1f77b4; stroke-width: 1.5; stroke-linecap: square"/>
   </g>
   <g id="line2d_14">
    <path d="M 298.484727 174.010272 
L 298.935 173.8529 
L 300.33 172.864466 
L 303.314126 170.903907 
L 324.171859 158.478444 
L 328.23 155.691123 
L 331.32675 153.301167 
L 333.81 151.150835 
L 336.6 148.369203 
L 338.585712 146.052981 
L 340.117633 143.98207 
L 341.434293 141.91116 
L 342.548363 139.840249 
L 343.575 137.495074 
L 344.20762 135.698428 
L 344.76966 133.627518 
L 345.160006 131.556607 
L 345.382181 129.485696 
L 345.43871 127.414786 
L 345.32974 125.343875 
L 344.97 122.839313 
L 344.607043 121.202054 
L 343.985126 119.131144 
L 343.180216 117.060233 
L 342.18 114.983076 
L 340.785 112.623237 
L 339.39 110.641936 
L 337.866555 108.776591 
L 335.899082 106.705681 
L 333.602024 104.63477 
L 330.899454 102.56386 
L 327.673395 100.492949 
L 325.44 99.262394 
L 322.65 97.929301 
L 319.86 96.79207 
L 317.07 95.830516 
L 314.28 95.028826 
L 310.095 94.102256 
L 305.91 93.483767 
L 301.725 93.155897 
L 297.54 93.111161 
L 293.355 93.347817 
L 289.17 93.872127 
L 284.985 94.696706 
L 280.8 95.844727 
L 278.01 96.806722 
L 274.166964 98.422039 
L 272.078122 99.457494 
L 269.64 100.827244 
L 266.85 102.641242 
L 264.06 104.778934 
L 261.908134 106.705681 
L 259.875 108.812415 
L 258.188014 110.847502 
L 256.712369 112.918412 
L 255.454657 114.989323 
L 254.295 117.28658 
L 253.523541 119.131144 
L 252.822711 121.202054 
L 252.288348 123.272965 
L 251.912284 125.343875 
L 251.69102 127.414786 
L 251.622602 129.485696 
L 251.706573 131.556607 
L 251.944073 133.627518 
L 252.337867 135.698428 
L 252.9 137.792497 
L 253.617053 139.840249 
L 254.518557 141.91116 
L 255.69 144.11781 
L 257.085 146.310216 
L 258.48 148.192471 
L 260.186891 150.194802 
L 262.665 152.695713 
L 265.455 155.113662 
L 268.530361 157.442988 
L 272.43 160.071126 
L 278.377286 163.65572 
L 286.38 168.26229 
L 289.17 169.889833 
L 294.176867 172.974817 
L 294.75 173.49247 
L 295.752753 174.010272 
L 296.145 174.640492 
L 298.484727 174.010272 
L 298.484727 174.010272 
" clip-path="url(#p502fc9312a)" style="fill: none; stroke: #ff7f0e; stroke-width: 1.5; stroke-linecap: square"/>
   </g>
   <g id="patch_3">
    <path d="M 57.6 307.584 
L 57.6 41.472 
" style="fill: none; stroke: #000000; stroke-width: 0.8; stroke-linejoin: miter; stroke-linecap: square"/>
   </g>
   <g id="patch_4">
    <path d="M 414.72 307.584 
L 414.72 41.472 
" style="fill: none; stroke: #000000; stroke-width: 0.8; stroke-linejoin: miter; stroke-linecap: square"/>
   </g>
   <g id="patch_5">
    <path d="M 57.6 307.584 
L 414.72 307.584 
" style="fill: none; stroke: #000000; stroke-width: 0.8; stroke-linejoin: miter; stroke-linecap: square"/>
   </g>
   <g id="patch_6">
    <path d="M 57.6 41.472 
L 414.72 41.472 
" style="fill: none; stroke: #000000; stroke-width: 0.8; stroke-linejoin: miter; stroke-linecap: square"/>
   </g>
  </g>
 </g>
 <defs>
  <clipPath id="p502fc9312a">
   <rect x="57.6" y="41.472" width="357.12" height="266.112"/>
  </clipPath>
 </defs>
</svg>
