<?xml version="1.0" encoding="utf-8" standalone="no"?>
<!DOCTYPE svg PUBLIC "-//W3C//DTD SVG 1.1//EN"
  "http://www.w3.org/Graphics/SVG/1.1/DTD/svg11.dtd">
<svg xmlns:xlink="http://www.w3.org/1999/xlink" width="460.8pt" height="345.6pt" viewBox="0 0 460.8 345.6" xmlns="http://www.w3.org/2000/svg" version="1.1">
 <metadata>
  <rdf:RDF xmlns:dc="http://purl.org/dc/elements/1.1/" xmlns:cc="http://creativecommons.org/ns#" xmlns:rdf="http://www.w3.org/1999/02/22-rdf-syntax-ns#">
   <cc:Work>
    <dc:type rdf:resource="http://purl.org/dc/dcmitype/StillImage"/>
    <dc:date>2023-03-14T16:46:22.989596</dc:date>
    <dc:format>image/svg+xml</dc:format>
    <dc:creator>
     <cc:Agent>
      <dc:title>Matplotlib v3.5.3, https://matplotlib.org/</dc:title>
     </cc:Agent>
    </dc:creator>
   </cc:Work>
  </rdf:RDF>
 </metadata>
 <defs>
  <style type="text/css">*{stroke-linejoin: round; stroke-linecap: butt}</style>
 </defs>
 <g id="figure_1">
  <g id="patch_1">
   <path d="M 0 345.6 
L 460.8 345.6 
L 460.8 0 
L 0 0 
z
" style="fill: #ffffff"/>
  </g>
  <g id="axes_1">
   <g id="patch_2">
    <path d="M 57.6 307.584 
L 414.72 307.584 
L 414.72 41.472 
L 57.6 41.472 
z
" style="fill: #ffffff"/>
   </g>
   <g id="matplotlib.axis_1">
    <g id="xtick_1">
     <g id="line2d_1">
      <defs>
       <path id="m4ce4601f4c" d="M 0 0 
L 0 3.5 
" style="stroke: #000000; stroke-width: 0.8"/>
      </defs>
      <g>
       <use xlink:href="#m4ce4601f4c" x="57.6" y="307.584" style="stroke: #000000; stroke-width: 0.8"/>
      </g>
     </g>
     <g id="text_1">
      <!-- 0 -->
      <g transform="translate(54.41875 322.182437)scale(0.1 -0.1)">
       <defs>
        <path id="DejaVuSans-30" d="M 2034 4250 
Q 1547 4250 1301 3770 
Q 1056 3291 1056 2328 
Q 1056 1369 1301 889 
Q 1547 409 2034 409 
Q 2525 409 2770 889 
Q 3016 1369 3016 2328 
Q 3016 3291 2770 3770 
Q 2525 4250 2034 4250 
z
M 2034 4750 
Q 2819 4750 3233 4129 
Q 3647 3509 3647 2328 
Q 3647 1150 3233 529 
Q 2819 -91 2034 -91 
Q 1250 -91 836 529 
Q 422 1150 422 2328 
Q 422 3509 836 4129 
Q 1250 4750 2034 4750 
z
" transform="scale(0.015625)"/>
       </defs>
       <use xlink:href="#DejaVuSans-30"/>
      </g>
     </g>
    </g>
    <g id="xtick_2">
     <g id="line2d_2">
      <g>
       <use xlink:href="#m4ce4601f4c" x="127.35" y="307.584" style="stroke: #000000; stroke-width: 0.8"/>
      </g>
     </g>
     <g id="text_2">
      <!-- 50 -->
      <g transform="translate(120.9875 322.182437)scale(0.1 -0.1)">
       <defs>
        <path id="DejaVuSans-35" d="M 691 4666 
L 3169 4666 
L 3169 4134 
L 1269 4134 
L 1269 2991 
Q 1406 3038 1543 3061 
Q 1681 3084 1819 3084 
Q 2600 3084 3056 2656 
Q 3513 2228 3513 1497 
Q 3513 744 3044 326 
Q 2575 -91 1722 -91 
Q 1428 -91 1123 -41 
Q 819 9 494 109 
L 494 744 
Q 775 591 1075 516 
Q 1375 441 1709 441 
Q 2250 441 2565 725 
Q 2881 1009 2881 1497 
Q 2881 1984 2565 2268 
Q 2250 2553 1709 2553 
Q 1456 2553 1204 2497 
Q 953 2441 691 2322 
L 691 4666 
z
" transform="scale(0.015625)"/>
       </defs>
       <use xlink:href="#DejaVuSans-35"/>
       <use xlink:href="#DejaVuSans-30" x="63.623047"/>
      </g>
     </g>
    </g>
    <g id="xtick_3">
     <g id="line2d_3">
      <g>
       <use xlink:href="#m4ce4601f4c" x="197.1" y="307.584" style="stroke: #000000; stroke-width: 0.8"/>
      </g>
     </g>
     <g id="text_3">
      <!-- 100 -->
      <g transform="translate(187.55625 322.182437)scale(0.1 -0.1)">
       <defs>
        <path id="DejaVuSans-31" d="M 794 531 
L 1825 531 
L 1825 4091 
L 703 3866 
L 703 4441 
L 1819 4666 
L 2450 4666 
L 2450 531 
L 3481 531 
L 3481 0 
L 794 0 
L 794 531 
z
" transform="scale(0.015625)"/>
       </defs>
       <use xlink:href="#DejaVuSans-31"/>
       <use xlink:href="#DejaVuSans-30" x="63.623047"/>
       <use xlink:href="#DejaVuSans-30" x="127.246094"/>
      </g>
     </g>
    </g>
    <g id="xtick_4">
     <g id="line2d_4">
      <g>
       <use xlink:href="#m4ce4601f4c" x="266.85" y="307.584" style="stroke: #000000; stroke-width: 0.8"/>
      </g>
     </g>
     <g id="text_4">
      <!-- 150 -->
      <g transform="translate(257.30625 322.182437)scale(0.1 -0.1)">
       <use xlink:href="#DejaVuSans-31"/>
       <use xlink:href="#DejaVuSans-35" x="63.623047"/>
       <use xlink:href="#DejaVuSans-30" x="127.246094"/>
      </g>
     </g>
    </g>
    <g id="xtick_5">
     <g id="line2d_5">
      <g>
       <use xlink:href="#m4ce4601f4c" x="336.6" y="307.584" style="stroke: #000000; stroke-width: 0.8"/>
      </g>
     </g>
     <g id="text_5">
      <!-- 200 -->
      <g transform="translate(327.05625 322.182437)scale(0.1 -0.1)">
       <defs>
        <path id="DejaVuSans-32" d="M 1228 531 
L 3431 531 
L 3431 0 
L 469 0 
L 469 531 
Q 828 903 1448 1529 
Q 2069 2156 2228 2338 
Q 2531 2678 2651 2914 
Q 2772 3150 2772 3378 
Q 2772 3750 2511 3984 
Q 2250 4219 1831 4219 
Q 1534 4219 1204 4116 
Q 875 4013 500 3803 
L 500 4441 
Q 881 4594 1212 4672 
Q 1544 4750 1819 4750 
Q 2544 4750 2975 4387 
Q 3406 4025 3406 3419 
Q 3406 3131 3298 2873 
Q 3191 2616 2906 2266 
Q 2828 2175 2409 1742 
Q 1991 1309 1228 531 
z
" transform="scale(0.015625)"/>
       </defs>
       <use xlink:href="#DejaVuSans-32"/>
       <use xlink:href="#DejaVuSans-30" x="63.623047"/>
       <use xlink:href="#DejaVuSans-30" x="127.246094"/>
      </g>
     </g>
    </g>
    <g id="xtick_6">
     <g id="line2d_6">
      <g>
       <use xlink:href="#m4ce4601f4c" x="406.35" y="307.584" style="stroke: #000000; stroke-width: 0.8"/>
      </g>
     </g>
     <g id="text_6">
      <!-- 250 -->
      <g transform="translate(396.80625 322.182437)scale(0.1 -0.1)">
       <use xlink:href="#DejaVuSans-32"/>
       <use xlink:href="#DejaVuSans-35" x="63.623047"/>
       <use xlink:href="#DejaVuSans-30" x="127.246094"/>
      </g>
     </g>
    </g>
   </g>
   <g id="matplotlib.axis_2">
    <g id="ytick_1">
     <g id="line2d_7">
      <defs>
       <path id="mc4cee3a623" d="M 0 0 
L -3.5 0 
" style="stroke: #000000; stroke-width: 0.8"/>
      </defs>
      <g>
       <use xlink:href="#mc4cee3a623" x="57.6" y="307.584" style="stroke: #000000; stroke-width: 0.8"/>
      </g>
     </g>
     <g id="text_7">
      <!-- 0 -->
      <g transform="translate(44.2375 311.383219)scale(0.1 -0.1)">
       <use xlink:href="#DejaVuSans-30"/>
      </g>
     </g>
    </g>
    <g id="ytick_2">
     <g id="line2d_8">
      <g>
       <use xlink:href="#mc4cee3a623" x="57.6" y="255.811237" style="stroke: #000000; stroke-width: 0.8"/>
      </g>
     </g>
     <g id="text_8">
      <!-- 50 -->
      <g transform="translate(37.875 259.610456)scale(0.1 -0.1)">
       <use xlink:href="#DejaVuSans-35"/>
       <use xlink:href="#DejaVuSans-30" x="63.623047"/>
      </g>
     </g>
    </g>
    <g id="ytick_3">
     <g id="line2d_9">
      <g>
       <use xlink:href="#mc4cee3a623" x="57.6" y="204.038475" style="stroke: #000000; stroke-width: 0.8"/>
      </g>
     </g>
     <g id="text_9">
      <!-- 100 -->
      <g transform="translate(31.5125 207.837693)scale(0.1 -0.1)">
       <use xlink:href="#DejaVuSans-31"/>
       <use xlink:href="#DejaVuSans-30" x="63.623047"/>
       <use xlink:href="#DejaVuSans-30" x="127.246094"/>
      </g>
     </g>
    </g>
    <g id="ytick_4">
     <g id="line2d_10">
      <g>
       <use xlink:href="#mc4cee3a623" x="57.6" y="152.265712" style="stroke: #000000; stroke-width: 0.8"/>
      </g>
     </g>
     <g id="text_10">
      <!-- 150 -->
      <g transform="translate(31.5125 156.064931)scale(0.1 -0.1)">
       <use xlink:href="#DejaVuSans-31"/>
       <use xlink:href="#DejaVuSans-35" x="63.623047"/>
       <use xlink:href="#DejaVuSans-30" x="127.246094"/>
      </g>
     </g>
    </g>
    <g id="ytick_5">
     <g id="line2d_11">
      <g>
       <use xlink:href="#mc4cee3a623" x="57.6" y="100.492949" style="stroke: #000000; stroke-width: 0.8"/>
      </g>
     </g>
     <g id="text_11">
      <!-- 200 -->
      <g transform="translate(31.5125 104.292168)scale(0.1 -0.1)">
       <use xlink:href="#DejaVuSans-32"/>
       <use xlink:href="#DejaVuSans-30" x="63.623047"/>
       <use xlink:href="#DejaVuSans-30" x="127.246094"/>
      </g>
     </g>
    </g>
    <g id="ytick_6">
     <g id="line2d_12">
      <g>
       <use xlink:href="#mc4cee3a623" x="57.6" y="48.720187" style="stroke: #000000; stroke-width: 0.8"/>
      </g>
     </g>
     <g id="text_12">
      <!-- 250 -->
      <g transform="translate(31.5125 52.519406)scale(0.1 -0.1)">
       <use xlink:href="#DejaVuSans-32"/>
       <use xlink:href="#DejaVuSans-35" x="63.623047"/>
       <use xlink:href="#DejaVuSans-30" x="127.246094"/>
      </g>
     </g>
    </g>
   </g>
   <g id="line2d_13">
    <path d="M 244.696542 197.825743 
L 245.238693 198.861198 
L 245.925 199.35531 
L 246.231594 199.896654 
L 252.338991 206.109385 
L 254.295 207.817454 
L 255.69 209.009142 
L 257.085 210.145062 
L 258.48 211.225936 
L 259.963166 212.322117 
L 264.06 215.034479 
L 266.85 216.657423 
L 270.534698 218.534848 
L 273.825 219.957488 
L 278.01 221.457672 
L 280.8 222.268918 
L 284.985 223.209966 
L 289.17 223.823315 
L 293.355 224.110391 
L 296.145 224.114733 
L 298.935 223.964068 
L 301.725 223.650998 
L 304.515 223.1683 
L 307.305 222.498098 
L 310.095 221.623836 
L 312.885 220.519151 
L 315.675 219.14529 
L 318.465 217.448323 
L 321.255 215.337043 
L 323.384688 213.357572 
L 325.44 211.020653 
L 326.835 209.107552 
L 328.23 206.794545 
L 329.104455 205.07393 
L 330.362549 201.967564 
L 331.300119 198.861198 
L 332.006966 195.754833 
L 334.25143 184.364825 
L 335.205 181.607607 
L 335.817992 180.223004 
L 336.935437 178.152093 
L 338.314133 176.081183 
L 339.955913 174.010272 
L 342.18 171.582436 
L 344.974888 168.832996 
L 353.630601 160.549354 
L 356.498384 157.442988 
L 359.048385 154.336623 
L 361.274767 151.230257 
L 363.181475 148.123891 
L 364.78744 145.017525 
L 366.103363 141.91116 
L 367.143666 138.804794 
L 367.921184 135.698428 
L 368.438447 132.592062 
L 368.703358 129.485696 
L 368.720627 126.379331 
L 368.489536 123.272965 
L 368.006872 120.166599 
L 367.262557 117.060233 
L 366.256965 113.953868 
L 364.971537 110.847502 
L 363.390396 107.741136 
L 361.492397 104.63477 
L 359.247967 101.528405 
L 357.525 99.442585 
L 354.735 96.467801 
L 352.402104 94.280218 
L 349.938528 92.209307 
L 347.189629 90.138397 
L 343.575 87.735877 
L 340.605588 85.996576 
L 336.581216 83.925665 
L 332.415 82.086836 
L 328.23 80.517145 
L 324.045 79.198022 
L 319.86 78.109825 
L 315.675 77.237149 
L 311.49 76.570562 
L 307.305 76.098026 
L 303.12 75.819096 
L 298.935 75.728031 
L 294.75 75.822955 
L 290.565 76.105783 
L 285.724665 76.677479 
L 282.195 77.252617 
L 278.01 78.128995 
L 273.825 79.220775 
L 269.64 80.543226 
L 265.455 82.115379 
L 261.27 83.964451 
L 257.085 86.124783 
L 253.807384 88.067486 
L 250.706288 90.138397 
L 247.939332 92.209307 
L 245.453989 94.280218 
L 243.135 96.426997 
L 240.242719 99.457494 
L 237.681754 102.56386 
L 235.474482 105.670226 
L 233.37 109.168363 
L 231.975 111.887223 
L 230.58 115.107002 
L 229.507002 118.095689 
L 228.607131 121.202054 
L 227.79 124.978272 
L 227.400255 127.414786 
L 227.064774 130.521152 
L 226.871906 134.662973 
L 226.946369 138.804794 
L 227.268811 142.946615 
L 227.825777 147.088436 
L 228.595122 151.230257 
L 229.582357 155.372078 
L 230.787074 159.513899 
L 232.222108 163.65572 
L 233.919203 167.797541 
L 235.395806 170.903907 
L 237.673614 175.045728 
L 242.419936 183.32937 
L 243.296595 185.40028 
L 243.875299 187.471191 
L 244.271554 189.542101 
L 244.476855 191.613012 
L 244.498739 193.683922 
L 244.384062 195.754833 
L 244.696542 197.825743 
L 244.696542 197.825743 
" clip-path="url(#pa63410623d)" style="fill: none; stroke: #1f77b4; stroke-width: 1.5; stroke-linecap: square"/>
   </g>
   <g id="line2d_14">
    <path d="M 243.135 197.267585 
L 243.005759 196.790288 
L 242.403113 195.754833 
L 241.74 195.212971 
L 241.439663 194.719377 
L 236.684988 189.542101 
L 233.197362 186.435735 
L 230.307365 184.364825 
L 227.79 182.911893 
L 225 181.590179 
L 222.21 180.500514 
L 219.42 179.583645 
L 215.235 178.450974 
L 211.05 177.533308 
L 205.47 176.564045 
L 199.89 175.832056 
L 194.31 175.309772 
L 188.73 174.992208 
L 183.15 174.881006 
L 177.57 174.991578 
L 171.99 175.33867 
L 166.41 175.948418 
L 160.83 176.846149 
L 156.645 177.729849 
L 152.46 178.81369 
L 147.978352 180.223004 
L 144.09 181.673661 
L 139.905 183.512865 
L 135.72 185.68449 
L 132.738543 187.471191 
L 129.692227 189.542101 
L 127.007427 191.613012 
L 124.56 193.747165 
L 121.77 196.545597 
L 119.769432 198.861198 
L 117.47627 201.967564 
L 115.579081 205.07393 
L 114.041416 208.180296 
L 112.835481 211.286661 
L 111.942945 214.393027 
L 111.346432 217.499393 
L 111.041568 220.605759 
L 111.022292 223.712125 
L 111.28832 226.81849 
L 111.845101 229.924856 
L 112.697723 233.031222 
L 113.862312 236.137588 
L 115.356698 239.243953 
L 117.208402 242.350319 
L 118.98 244.84211 
L 120.375 246.579796 
L 122.149768 248.563051 
L 124.56 250.93726 
L 127.35 253.331752 
L 130.14 255.423589 
L 132.93 257.266971 
L 135.752696 258.917603 
L 139.905 261.010586 
L 144.09 262.772163 
L 148.275 264.228029 
L 152.46 265.409956 
L 156.645 266.339143 
L 160.83 267.032018 
L 165.015 267.499769 
L 169.2 267.748815 
L 173.385 267.782721 
L 177.57 267.602241 
L 181.774511 267.201245 
L 185.94 266.585044 
L 190.125 265.733223 
L 194.31 264.635835 
L 198.495 263.273421 
L 202.68 261.61984 
L 206.865 259.637555 
L 210.039865 257.882148 
L 213.312524 255.811237 
L 216.1809 253.740327 
L 218.721605 251.669416 
L 220.989339 249.598506 
L 223.605 246.890921 
L 225.706313 244.42123 
L 228.016483 241.314864 
L 230.021186 238.208498 
L 231.975 234.704317 
L 233.37 231.869585 
L 235.118587 227.853946 
L 236.703535 223.712125 
L 238.468277 218.534848 
L 240.976464 210.251206 
L 242.6219 204.038475 
L 243.705613 198.861198 
L 243.819866 197.825743 
L 243.135 197.267585 
L 243.135 197.267585 
" clip-path="url(#pa63410623d)" style="fill: none; stroke: #ff7f0e; stroke-width: 1.5; stroke-linecap: square"/>
   </g>
   <g id="patch_3">
    <path d="M 57.6 307.584 
L 57.6 41.472 
" style="fill: none; stroke: #000000; stroke-width: 0.8; stroke-linejoin: miter; stroke-linecap: square"/>
   </g>
   <g id="patch_4">
    <path d="M 414.72 307.584 
L 414.72 41.472 
" style="fill: none; stroke: #000000; stroke-width: 0.8; stroke-linejoin: miter; stroke-linecap: square"/>
   </g>
   <g id="patch_5">
    <path d="M 57.6 307.584 
L 414.72 307.584 
" style="fill: none; stroke: #000000; stroke-width: 0.8; stroke-linejoin: miter; stroke-linecap: square"/>
   </g>
   <g id="patch_6">
    <path d="M 57.6 41.472 
L 414.72 41.472 
" style="fill: none; stroke: #000000; stroke-width: 0.8; stroke-linejoin: miter; stroke-linecap: square"/>
   </g>
  </g>
 </g>
 <defs>
  <clipPath id="pa63410623d">
   <rect x="57.6" y="41.472" width="357.12" height="266.112"/>
  </clipPath>
 </defs>
</svg>
