ply
format ascii 1.0
comment VTK generated PLY File
obj_info vtkPolyData points and polygons: vtk4.0
element vertex 168
property float x
property float y
property float z
element face 0
property list uchar int vertex_indices
end_header
0.13661889731884003 0.20972763001918793 0 
0.13671875 0.20940929651260376 0 
0.13839671015739441 0.20428015291690826 0 
0.14046147465705872 0.19883269071578979 0 
0.14218750596046448 0.19482693076133728 0 
0.14283862709999084 0.19338521361351013 0 
0.14558687806129456 0.18793773651123047 0 
0.14765624701976776 0.18423886597156525 0 
0.14868704974651337 0.182490274310112 0 
0.15220414102077484 0.17704279720783234 0 
0.15312500298023224 0.17572835087776184 0 
0.15619289875030518 0.17159533500671387 0 
0.15859374403953552 0.16859725117683411 0 
0.16068296134471893 0.1661478579044342 0 
0.1640625 0.16244488954544067 0 
0.16576811671257019 0.16070039570331573 0 
0.16953125596046448 0.15707609057426453 0 
0.17157217860221863 0.15525291860103607 0 
0.17499999701976776 0.15234933793544769 0 
0.17826108634471893 0.14980544149875641 0 
0.18046875298023224 0.14816164970397949 0 
0.18593749403953552 0.14444170892238617 0 
0.18607291579246521 0.14435797929763794 0 
0.19140625 0.14118660986423492 0 
0.1956842839717865 0.13891050219535828 0 
0.19687500596046448 0.1382976770401001 0 
0.20234374701976776 0.13579699397087097 0 
0.20781250298023224 0.1336229145526886 0 
0.20828209817409515 0.13346303999423981 0 
0.21328124403953552 0.131803959608078 0 
0.21875 0.13030004501342773 0 
0.22421875596046448 0.12910538911819458 0 
0.22968749701976776 0.12821774184703827 0 
0.23158222436904907 0.12801556289196014 0 
0.23515625298023224 0.12764093279838562 0 
0.24062499403953552 0.12736646831035614 0 
0.24609375 0.1273903101682663 0 
0.25156250596046448 0.12771154940128326 0 
0.25425183773040771 0.12801556289196014 0 
0.25703126192092896 0.12833410501480103 0 
0.26249998807907104 0.12926170229911804 0 
0.26796874403953552 0.13048957288265228 0 
0.2734375 0.13201764225959778 0 
0.2777620255947113 0.13346303999423981 0 
0.27890625596046448 0.1338537335395813 0 
0.28437501192092896 0.136026531457901 0 
0.28984373807907104 0.13850820064544678 0 
0.29063397645950317 0.13891050219535828 0 
0.29531249403953552 0.14136160910129547 0 
0.3004571795463562 0.14435797929763794 0 
0.30078125 0.14455333352088928 0 
0.30625000596046448 0.14817303419113159 0 
0.30851155519485474 0.14980544149875641 0 
0.31171876192092896 0.15221802890300751 0 
0.31544440984725952 0.15525291860103607 0 
0.31718748807907104 0.15674185752868652 0 
0.32149502635002136 0.16070039570331573 0 
0.32265624403953552 0.16182662546634674 0 
0.3268217146396637 0.1661478579044342 0 
0.328125 0.16758467257022858 0 
0.33154454827308655 0.17159533500671387 0 
0.33359375596046448 0.17416836321353912 0 
0.33575603365898132 0.17704279720783234 0 
0.33906251192092896 0.18178670108318329 0 
0.33952781558036804 0.182490274310112 0 
0.34284767508506775 0.18793773651123047 0 
0.34453123807907104 0.19097131490707397 0 
0.3458084762096405 0.19338521361351013 0 
0.3484092652797699 0.19883269071578979 0 
0.34999999403953552 0.20257668197154999 0 
0.35069319605827332 0.20428015291690826 0 
0.352640300989151 0.20972763001918793 0 
0.35431140661239624 0.2151750922203064 0 
0.35546875 0.21968626976013184 0 
0.35569998621940613 0.22062256932258606 0 
0.35678544640541077 0.22607003152370453 0 
0.35760825872421265 0.23151750862598419 0 
0.35816913843154907 0.23696498572826385 0 
0.35846859216690063 0.24241244792938232 0 
0.35850641131401062 0.24785992503166199 0 
0.35828211903572083 0.25330740213394165 0 
0.35779476165771484 0.25875484943389893 0 
0.35704284906387329 0.26420232653617859 0 
0.35602429509162903 0.26964980363845825 0 
0.35546875 0.27200499176979065 0 
0.35471063852310181 0.27509728074073792 0 
0.35309526324272156 0.28054475784301758 0 
0.35119408369064331 0.28599220514297485 0 
0.34999999403953552 0.28896847367286682 0 
0.34896367788314819 0.29143968224525452 0 
0.3463796079158783 0.29688715934753418 0 
0.34453123807907104 0.30037203431129456 0 
0.3434375524520874 0.30233463644981384 0 
0.34008270502090454 0.30778211355209351 0 
0.33906251192092896 0.30929535627365112 0 
0.3362603485584259 0.31322956085205078 0 
0.33359375596046448 0.31667020916938782 0 
0.33194202184677124 0.31867703795433044 0 
0.328125 0.32297161221504211 0 
0.32703062891960144 0.32412451505661011 0 
0.32265624403953552 0.3284207284450531 0 
0.32139641046524048 0.32957199215888977 0 
0.31718748807907104 0.3331795334815979 0 
0.31486424803733826 0.33501946926116943 0 
0.31171876192092896 0.33736887574195862 0 
0.30719375610351562 0.34046691656112671 0 
0.30625000596046448 0.34107941389083862 0 
0.30078125 0.3443160355091095 0 
0.29778307676315308 0.34591439366340637 0 
0.29531249403953552 0.34716963768005371 0 
0.28984373807907104 0.34964829683303833 0 
0.28553763031959534 0.35136187076568604 0 
0.28437501192092896 0.35180506110191345 0 
0.27890625596046448 0.35360994935035706 0 
0.2734375 0.35513004660606384 0 
0.26796874403953552 0.3563687801361084 0 
0.26546353101730347 0.3568093478679657 0 
0.26249998807907104 0.35731172561645508 0 
0.25703126192092896 0.35797300934791565 0 
0.25156250596046448 0.35836902260780334 0 
0.24609375 0.35850065946578979 0 
0.24062499403953552 0.35836842656135559 0 
0.23515625298023224 0.35797208547592163 0 
0.22968749701976776 0.35731098055839539 0 
0.22672544419765472 0.3568093478679657 0 
0.22421875596046448 0.35636913776397705 0 
0.21875 0.35513275861740112 0 
0.21328124403953552 0.35361665487289429 0 
0.20781250298023224 0.35181775689125061 0 
0.20661205053329468 0.35136187076568604 0 
0.20234374701976776 0.3496706485748291 0 
0.19687500596046448 0.34720450639724731 0 
0.1943216472864151 0.34591439366340637 0 
0.19140625 0.34437006711959839 0 
0.18593749403953552 0.34115675091743469 0 
0.18486642837524414 0.34046691656112671 0 
0.18046875298023224 0.33748218417167664 0 
0.17714023590087891 0.33501946926116943 0 
0.17499999701976776 0.33334273099899292 0 
0.17054970562458038 0.32957199215888977 0 
0.16953125596046448 0.32865354418754578 0 
0.1648547500371933 0.32412451505661011 0 
0.1640625 0.32330325245857239 0 
0.15988060832023621 0.31867703795433044 0 
0.15859374403953552 0.31714382767677307 0 
0.15549759566783905 0.31322956085205078 0 
0.15312500298023224 0.30997687578201294 0 
0.15160834789276123 0.30778211355209351 0 
0.14816001057624817 0.30233463644981384 0 
0.14765624701976776 0.30146041512489319 0 
0.14514556527137756 0.29688715934753418 0 
0.14245800673961639 0.29143968224525452 0 
0.14218750596046448 0.29082518815994263 0 
0.140149787068367 0.28599220514297485 0 
0.13813541829586029 0.28054475784301758 0 
0.13671875 0.27609974145889282 0 
0.13641119003295898 0.27509728074073792 0 
0.13500118255615234 0.26964980363845825 0 
0.13385418057441711 0.26420232653617859 0 
0.13296760618686676 0.25875484943389893 0 
0.13233983516693115 0.25330740213394165 0 
0.13196955621242523 0.24785992503166199 0 
0.1318562924861908 0.24241244792938232 0 
0.13200004398822784 0.23696498572826385 0 
0.13240154087543488 0.23151750862598419 0 
0.13306200504302979 0.22607003152370453 0 
0.13398337364196777 0.22062256932258606 0 
0.13516798615455627 0.2151750922203064 0 
